<svg xmlns="http://www.w3.org/2000/svg" viewBox="0 0 1208.14 713.24"><defs><style>.cls-1{fill:#3a98d7;}.cls-2{fill:#30ac63;}.cls-3{fill:#995cb3;}.cls-4{fill:#2e80b6;}.cls-5{fill:#29ba9b;}.cls-6{fill:#8c48aa;}.cls-7{font-size:75px;}.cls-10,.cls-7,.cls-8{fill:#fff;}.cls-7,.cls-8{font-family:Gotham-Bold, Gotham;font-weight:700;}.cls-8{font-size:66px;}.cls-9{fill:#239e84;}.cls-11{fill:#39c974;}</style></defs><title>Fichier 5</title><g id="Calque_2" data-name="Calque 2"><g id="Calque_5" data-name="Calque 5"><path class="cls-1" d="M592.66,127.71c13.49-16.1,27.63-31.57,43.61-45.28C685.64,40.08,742.39,13.91,806.82,4.51a339.76,339.76,0,0,1,97.06.17c4.67.67,6.93,2.07,7.6,7.31,2.94,22.76,6.42,45.46,9.83,68.16.32,2.12-.47,3.51-1.49,5-12.75,18.91-25.62,37.74-38.14,56.8-2.69,4.1-6,2.73-9.22,2.42-22.44-2.13-44.76-1-66.33,5.36-76.74,22.74-123.4,73.44-139.34,152a154.54,154.54,0,0,0-2.73,34.29c.08,3.77-.87,4.12-4.19,2.81-20.57-8.1-41.22-16-61.8-24.06a10.78,10.78,0,0,0-8.57.07c-20.72,8.17-41.51,16.17-62.28,24.22-1.53.59-3.08,1.11-6.15,2.21V318.67c2.1-7.54,1.72-15.38,2.61-23.06a334.12,334.12,0,0,1,28.51-101.67C563.07,170.26,576.9,148.4,592.66,127.71Z"/><path class="cls-2" d="M593.38,539.7c-6.37,7.25-12.49,14.74-19.15,21.73-49.72,52.21-109.76,85.73-180.73,99.37a346.2,346.2,0,0,1-62.54,6c-4.3,0-4.65-1-3.19-4.75,8.23-20.9,16.21-41.89,24.44-62.79a9.42,9.42,0,0,0,0-7.56c-8.13-20.76-16.13-41.57-24.16-62.36-2.05-5.29-2-5.28,3.79-5.39,66.95-1.28,119.45-29.73,157.6-84.48,16.54-23.73,26.18-50.4,30.19-79,.44-3.16,1.71-4.64,4.48-5.7q33.52-12.91,67-26a6.6,6.6,0,0,1,5.23-.13q33.67,13.26,67.4,26.35c-1.5,12.65-2.57,25.35-4.86,37.91a329.06,329.06,0,0,1-47.82,121C605.37,522.58,599.28,531.07,593.38,539.7Z"/><path class="cls-3" d="M1040.32,373.16c15.15,10.24,29.75,20.1,44.33,30,4.69,3.17,9.57,6.1,14,9.62,3.74,3,7.59,3.39,12.06,2.71,21.38-3.28,42.8-6.34,64.17-9.65,4.28-.66,4.14.85,3.27,4.21-29.22,112.55-97.57,191.11-205.38,234.46-54.77,22-111.92,26.81-170.27,18.07-4.79-.72-6.08-2.76-6.7-7.08-3-21.25-6.33-42.46-9.62-63.66a9,9,0,0,1,1.34-7c13.33-19.72,26.66-39.44,39.68-59.36,2.38-3.66,5.19-2.85,8.18-2.55,27.41,2.73,54.32.17,80.19-9.28,64.37-23.54,105.44-68.68,123.32-134.89C1039.3,377.1,1039.71,375.49,1040.32,373.16Z"/><path class="cls-4" d="M1186.82,333.67c.18,17.69-1.76,35.21-4.13,52.7-.49,3.63-1.8,5.18-5.75,5.73-22.4,3.07-44.75,6.49-67.09,9.95a7,7,0,0,1-5.52-1.38c-19.56-13.28-39.1-26.59-58.77-39.7-2.59-1.73-2.89-3.65-2.61-6.28,3.82-36.12-1.51-70.79-17.69-103.37-26.41-53.19-68.65-87.24-126.14-102.15-4.53-1.17-4.93-2.09-2.35-5.84,12.35-18,24.46-36.12,36.7-54.17a8.79,8.79,0,0,0,1.64-6.89C931.58,59.6,928.32,36.89,925,14.19c-.83-5.68-.73-5.8,4.76-4.48q114.14,27.43,186.79,119.66c35,44.42,56.74,94.85,66,150.61A311.28,311.28,0,0,1,1186.82,333.67Z"/><path class="cls-5" d="M592.66,127.71c-15.76,20.69-29.59,42.55-40.47,66.23a334.12,334.12,0,0,0-28.51,101.67c-.89,7.68-.51,15.52-2.61,23.06C513.3,234,455.49,167.58,372.62,148.14a147.24,147.24,0,0,0-15.24-2.55,6.12,6.12,0,0,1-5.7-4.47Q339.44,109,326.77,77a9.59,9.59,0,0,1,.12-7.63c8.32-21.2,16.63-42.41,24.74-63.7,1.13-2.95,2.31-4.09,5.64-3.8q123.5,11,211.27,98.54A296.87,296.87,0,0,1,592.66,127.71Z"/><path class="cls-6" d="M593.38,539.7c5.9-8.63,12-17.12,17.67-25.89a329.06,329.06,0,0,0,47.82-121c2.29-12.56,3.36-25.26,4.86-37.91,2.3.52,1.82,2.51,2,4,9.51,76.75,68.82,142.23,144.64,159.67,1.29.29,2.56.65,4.36,1.12-1.07,1.74-1.94,3.23-2.9,4.66q-18.92,28.19-37.89,56.35c-1.44,2.13-2.37,4.13-1.94,6.89,3.43,22,6.54,44.1,10.17,66.09.79,4.81-.91,4.5-4.22,3.68a343.29,343.29,0,0,1-56.2-18.77,333.48,333.48,0,0,1-126.64-96.52C594.48,541.36,594,540.51,593.38,539.7Z"/></g><g id="Calque_4" data-name="Calque 4"><text class="cls-7" transform="matrix(0.85, -0.52, 0.52, 0.85, 467.76, 578.15)">O</text><text class="cls-7" transform="matrix(0.72, -0.7, 0.7, 0.72, 527.84, 539.89)">P</text><text class="cls-7" transform="matrix(0.55, -0.83, 0.83, 0.55, 568.22, 499.45)">S</text><text class="cls-8" transform="translate(813.34 616.46) rotate(-0.84)">S</text><text class="cls-8" transform="translate(857.99 615.79) rotate(-5.66)">E</text><text class="cls-8" transform="translate(905.1 611.16) rotate(-11.84)">C</text><text class="cls-8" transform="translate(956.94 600.19) rotate(-20.29)">U</text><text class="cls-8" transform="translate(1008.95 580.5) rotate(-31.5)">R</text><text class="cls-8" transform="translate(1053.31 551.42) rotate(-41.18)">I</text><text class="cls-8" transform="matrix(0.59, -0.81, 0.81, 0.59, 1074.47, 532.71)">T</text><text class="cls-8" transform="matrix(0.48, -0.88, 0.88, 0.48, 1101.25, 494.91)">E</text><text class="cls-8" transform="matrix(0.71, 0.71, -0.71, 0.71, 966.66, 103.52)">E</text><text class="cls-8" transform="matrix(0.65, 0.76, -0.76, 0.65, 997.39, 134.09)">X</text><text class="cls-8" transform="matrix(0.57, 0.82, -0.82, 0.57, 1027.91, 170.19)">P</text><text class="cls-8" transform="translate(1052.5 205.43) rotate(61.05)">L</text><text class="cls-8" transform="translate(1071 237.3) rotate(68.6)">O</text><text class="cls-8" transform="translate(1090.47 288.99) rotate(73)">I</text><text class="cls-8" transform="translate(1097.02 309.68) rotate(75.57)">T</text><text class="cls-8" transform="translate(621.98 503.74) rotate(49.54)">P</text><text class="cls-8" transform="translate(654.3 541.27) rotate(38.87)">R</text><text class="cls-8" transform="translate(697.24 575.61) rotate(24.83)">O</text></g><g id="SI"><path class="cls-9" d="M340.26,0c-6.7,17.32-13.1,33.88-19.51,50.44-2.34,6-4.57,12.14-7.09,18.12a9.26,9.26,0,0,0,.11,7.59q12.08,30.64,23.88,61.37c.57,1.5,1.71,2.91,1.11,5.08a200.66,200.66,0,0,0-39.1,2.83Q236,156.91,192.37,204.59c-27.67,30.28-43.85,66-48.39,106.83a5,5,0,0,1-3.58,4.7q-32.84,12.61-65.57,25.44a6.74,6.74,0,0,1-5.25-.06C47.75,333,25.92,324.42,4,316.08,1,315,.56,313.56.75,310.6,9.49,170.87,106.81,51.73,239.83,13.25,272.39,3.83,305.58-.29,340.26,0Z"/><path class="cls-10" d="M140.06,213.74l-10.41,17.64L84.44,204.7l10.4-17.63c8.39-14.22,23.93-18.28,36.66-10.77l.13.08C144.35,183.88,148.44,199.53,140.06,213.74Zm-14.57-27c-8-4.73-16.87-2.56-21.67,5.58l-4.53,7.69,27.25,16.08,4.54-7.68c4.8-8.14,2.55-16.87-5.46-21.6Z"/><path class="cls-10" d="M159.09,184.11l-37.65-36.59L149,119.12l7.37,7.16-19.6,20.17,7.64,7.42,17.25-17.75,7.37,7.16L151.81,161l7.91,7.69,19.86-20.44,7.37,7.16Z"/><path class="cls-10" d="M215.92,138.45,207,143.36l-44-36.13,11.18-6.14,29.82,25.81-5.76-39,10.91-6Z"/><text class="cls-7" transform="matrix(0.88, 0.48, -0.48, 0.88, 448.8, 125.84)">I</text><text class="cls-7" transform="matrix(0.79, 0.62, -0.62, 0.79, 470, 135.75)">A</text><text class="cls-7" transform="translate(643.25 244.85) rotate(-52.37)">D</text><text class="cls-7" transform="translate(676.13 201.84) rotate(-48.86)">A</text><text class="cls-7" transform="matrix(0.71, -0.71, 0.71, 0.71, 709.97, 162.85)">T</text><text class="cls-7" transform="matrix(0.77, -0.63, 0.63, 0.77, 738.22, 133.59)">A</text></g><g id="DEV"><path class="cls-11" d="M142.78,329.61c-.27,19.25,1.62,37.65,7.29,55.34C173.79,459,223.69,504.28,300,519.47c9.64,1.92,14.57,5.08,17.72,14.54,6.3,18.9,14.11,37.3,21.43,55.85a10.23,10.23,0,0,1,0,8.1q-12.28,31.34-24.24,62.8c-1.24,3.29-2.93,4-6.25,3.76C160.92,653.32,39.64,548.06,7.5,402.9A329.34,329.34,0,0,1,0,333.52c0-3.73.6-4.54,4.36-3,21.32,8.45,42.75,16.62,64.1,25a9.54,9.54,0,0,0,7.59.06C96,347.63,116,339.89,136,332.11,137.94,331.33,140,330.64,142.78,329.61Z"/><path class="cls-10" d="M114,530.18a40.63,40.63,0,0,1-9.8-28.79l14-.72c-.1,8,1.46,14.92,6.42,20.67,3.91,4.52,8.2,5.58,11.36,2.86l.15-.14c3-2.59,3.06-5.65-1.89-16-6-12.52-8.62-21.66,2.09-30.91l.15-.13c9.78-8.46,22.59-6.73,31.46,3.54a36.83,36.83,0,0,1,9.28,24.6l-13.9,2c-.54-7.32-2.32-13.43-6-17.67s-7.67-4.66-10.29-2.4l-.15.13c-3.54,3.07-2.84,6.22,2.28,17,6,12.66,7,21.8-2.4,29.92l-.15.13C135.94,543.44,123.35,541,114,530.18Z"/><path class="cls-10" d="M145.38,561.08l46.89-53.69,11,9.61L156.4,570.7Z"/></g></g></svg>