<svg xmlns="http://www.w3.org/2000/svg" viewBox="0 0 1186.83 666.77"><defs><style>.cls-1{fill:#3a98d7;}.cls-2{fill:#30ac63;}.cls-3{fill:#995cb3;}.cls-4{fill:#2e80b6;}.cls-5{fill:#29ba9b;}.cls-6{fill:#8c48aa;}.cls-7{fill:#fff;}.cls-8{fill:#239e84;}.cls-9{fill:#39c974;}</style></defs><title>do-infos</title><g id="Calque_2" data-name="Calque 2"><g id="Calque_5" data-name="Calque 5"><path class="cls-1" d="M592.66,127.71c13.49-16.1,27.63-31.57,43.61-45.28C685.64,40.08,742.39,13.91,806.82,4.51a339.76,339.76,0,0,1,97.06.17c4.67.67,6.93,2.07,7.6,7.31,2.94,22.76,6.42,45.46,9.83,68.16.32,2.12-.47,3.51-1.49,5-12.75,18.91-25.62,37.74-38.14,56.8-2.69,4.1-6,2.73-9.22,2.42-22.44-2.13-44.76-1-66.33,5.36-76.74,22.74-123.4,73.44-139.34,152a154.54,154.54,0,0,0-2.73,34.29c.08,3.77-.87,4.12-4.19,2.81-20.57-8.1-41.22-16-61.8-24.06a10.78,10.78,0,0,0-8.57.07c-20.72,8.17-41.51,16.17-62.28,24.22-1.53.59-3.08,1.11-6.15,2.21V318.67c2.1-7.54,1.72-15.38,2.61-23.06a334.12,334.12,0,0,1,28.51-101.67C563.07,170.26,576.9,148.4,592.66,127.71Z"/><path class="cls-2" d="M593.38,539.7c-6.37,7.25-12.49,14.74-19.15,21.73-49.72,52.21-109.76,85.73-180.73,99.37a346.2,346.2,0,0,1-62.54,6c-4.3,0-4.65-1-3.19-4.75,8.23-20.9,16.21-41.89,24.44-62.79a9.42,9.42,0,0,0,0-7.56c-8.13-20.76-16.13-41.57-24.16-62.36-2.05-5.29-2-5.28,3.79-5.39,66.95-1.28,119.45-29.73,157.6-84.48,16.54-23.73,26.18-50.4,30.19-79,.44-3.16,1.71-4.64,4.48-5.7q33.52-12.91,67-26a6.6,6.6,0,0,1,5.23-.13q33.67,13.26,67.4,26.35c-1.5,12.65-2.57,25.35-4.86,37.91a329.06,329.06,0,0,1-47.82,121C605.37,522.58,599.28,531.07,593.38,539.7Z"/><path class="cls-3" d="M1040.32,373.16c15.15,10.24,29.75,20.1,44.33,30,4.69,3.17,9.57,6.1,14,9.62,3.74,3,7.59,3.39,12.06,2.71,21.38-3.28,42.8-6.34,64.17-9.65,4.28-.66,4.14.85,3.27,4.21-29.22,112.55-97.57,191.11-205.38,234.46-54.77,22-111.92,26.81-170.27,18.07-4.79-.72-6.08-2.76-6.7-7.08-3-21.25-6.33-42.46-9.62-63.66a9,9,0,0,1,1.34-7c13.33-19.72,26.66-39.44,39.68-59.36,2.38-3.66,5.19-2.85,8.18-2.55,27.41,2.73,54.32.17,80.19-9.28,64.37-23.54,105.44-68.68,123.32-134.89C1039.3,377.1,1039.71,375.49,1040.32,373.16Z"/><path class="cls-4" d="M1186.82,333.67c.18,17.69-1.76,35.21-4.13,52.7-.49,3.63-1.8,5.18-5.75,5.73-22.4,3.07-44.75,6.49-67.09,9.95a7,7,0,0,1-5.52-1.38c-19.56-13.28-39.1-26.59-58.77-39.7-2.59-1.73-2.89-3.65-2.61-6.28,3.82-36.12-1.51-70.79-17.69-103.37-26.41-53.19-68.65-87.24-126.14-102.15-4.53-1.17-4.93-2.09-2.35-5.84,12.35-18,24.46-36.12,36.7-54.17a8.79,8.79,0,0,0,1.64-6.89C931.58,59.6,928.32,36.89,925,14.19c-.83-5.68-.73-5.8,4.76-4.48q114.14,27.43,186.79,119.66c35,44.42,56.74,94.85,66,150.61A311.28,311.28,0,0,1,1186.82,333.67Z"/><path class="cls-5" d="M592.66,127.71c-15.76,20.69-29.59,42.55-40.47,66.23a334.12,334.12,0,0,0-28.51,101.67c-.89,7.68-.51,15.52-2.61,23.06C513.3,234,455.49,167.58,372.62,148.14a147.24,147.24,0,0,0-15.24-2.55,6.12,6.12,0,0,1-5.7-4.47Q339.44,109,326.77,77a9.59,9.59,0,0,1,.12-7.63c8.32-21.2,16.63-42.41,24.74-63.7,1.13-2.95,2.31-4.09,5.64-3.8q123.5,11,211.27,98.54A296.87,296.87,0,0,1,592.66,127.71Z"/><path class="cls-6" d="M593.38,539.7c5.9-8.63,12-17.12,17.67-25.89a329.06,329.06,0,0,0,47.82-121c2.29-12.56,3.36-25.26,4.86-37.91,2.3.52,1.82,2.51,2,4,9.51,76.75,68.82,142.23,144.64,159.67,1.29.29,2.56.65,4.36,1.12-1.07,1.74-1.94,3.23-2.9,4.66q-18.92,28.19-37.89,56.35c-1.44,2.13-2.37,4.13-1.94,6.89,3.43,22,6.54,44.1,10.17,66.09.79,4.81-.91,4.5-4.22,3.68a343.29,343.29,0,0,1-56.2-18.77,333.48,333.48,0,0,1-126.64-96.52C594.48,541.36,594,540.51,593.38,539.7Z"/></g><g id="Calque_4" data-name="Calque 4"><path class="cls-7" d="M495.42,562.45c-13.85,8.41-30.05,4.13-37.81-8.63l-.07-.12c-7.76-12.76-4-29.32,9.8-37.74s30.05-4.13,37.81,8.63l.07.12C513,537.47,509.26,554,495.42,562.45ZM494.9,531c-4.67-7.7-14.21-10.68-22.15-5.85s-9.65,14.46-5,22.16l.07.12c4.68,7.7,14.22,10.68,22.16,5.85s9.65-14.46,5-22.16Z"/><path class="cls-7" d="M535.94,510.08l-6.29,6.12,11,11.28-8.28,8.06-36.62-37.62,15.37-15c9-8.74,19.58-8.7,27.06-1l.11.11C546.75,490.76,544.38,501.86,535.94,510.08Zm-6-19.81c-3.61-3.71-8.13-3.19-12.27.84l-6.39,6.22,11.19,11.5,6.56-6.38c4.14-4,4.15-8.85,1-12.08Z"/><path class="cls-7" d="M582.7,479.12A33.38,33.38,0,0,1,563.35,493l-3-10.21c5.86-1.77,10.66-4.52,14-9.51,2.62-3.93,2.64-7.35.08-9l-.12-.08c-2.44-1.63-4.68-1-11.42,5.1-8.11,7.3-14.33,11.36-23,5.58l-.12-.08c-7.93-5.28-8.93-15.15-3-24.07a30.35,30.35,0,0,1,16.36-12.53L557,448c-5.27,2.08-9.43,4.81-11.88,8.49s-2.06,6.74.07,8.15l.12.09c2.87,1.91,5.06.66,12-5.6,8.22-7.33,14.73-10.2,22.34-5.13l.13.08C588.51,459.84,589,469.69,582.7,479.12Z"/><path class="cls-7" d="M835.33,616.8a29.41,29.41,0,0,1-19.71-7.11l5.9-7.28c4.21,3.37,8.6,5.49,13.88,5.41,4.15-.06,6.64-1.75,6.6-4.45v-.13c0-2.58-1.65-3.87-9.4-5.74-9.33-2.24-15.38-4.73-15.51-13.9v-.13c-.12-8.38,6.53-14,16-14.16a26.77,26.77,0,0,1,17.25,5.62l-5.17,7.73c-4.13-2.77-8.19-4.43-12.08-4.38s-5.91,1.87-5.88,4.12v.13c.05,3,2,4,10.06,5.92,9.4,2.31,14.73,5.6,14.85,13.65v.13C852.21,611.41,845.29,616.65,835.33,616.8Z"/><path class="cls-7" d="M863.51,615.24l-4.56-46,34.68-3.43.89,9-24.63,2.44.93,9.32,21.67-2.14.89,9-21.67,2.15,1,9.66,25-2.48.89,9Z"/><path class="cls-7" d="M931.88,606.36A23.32,23.32,0,0,1,903.81,588l0-.13c-2.7-12.85,4.79-25.41,18.67-28.32,8.53-1.79,14.23,0,19.3,3.24l-4.8,8.63c-4.16-2.44-8.12-3.63-12.64-2.69-7.62,1.6-11.78,9.08-10.16,16.84l0,.13c1.62,7.75,8.34,13.08,16.09,11.46,5.17-1.08,7.9-3.81,10.77-7.79l7.68,5.07C945.12,600.35,940.6,604.53,931.88,606.36Z"/><path class="cls-7" d="M980.47,592.27c-11.63,4.3-21.16.43-25.87-12.32l-9.16-24.77,9.54-3.52L964,576.17c2.61,7.06,7.49,9.41,13.31,7.26s8-7,5.5-13.86l-9.18-24.82,9.54-3.52,9,24.45C997.1,578.8,992.11,588,980.47,592.27Z"/><path class="cls-7" d="M1037.59,562.94l-16.17-7.43-6.8,4.18,7.72,12.6-8.67,5.31-24.14-39.39,18-11c9.28-5.69,17.85-4.21,22.82,3.89l.07.11c3.9,6.36,2.91,12.46-1,17.39l18.25,8.17Zm-15.73-26c-2.28-3.72-6-4-10.26-1.45l-8.61,5.27,6.93,11.31,8.78-5.38c4.22-2.58,5.26-6.32,3.23-9.64Z"/><path class="cls-7" d="M1057.83,547.46l-30.42-34.77,7.65-6.69,30.42,34.77Z"/><path class="cls-7" d="M1060.19,489.67,1090,511.28l-6,8.23-29.81-21.61L1046,509.28l-7.59-5.51,22.47-31,7.59,5.5Z"/><path class="cls-7" d="M1103.92,490.05l-40.48-22.26,16.79-30.54,7.92,4.36-11.92,21.69,8.21,4.51,10.49-19.08,7.93,4.35-10.5,19.09,8.5,4.67,12.09-22,7.92,4.35Z"/><path class="cls-7" d="M970.58,107.44l32.7-32.64,24.62,24.67-6.4,6.39L1004,88.34,997.38,95l15.39,15.41-6.4,6.39L991,101.35l-6.87,6.85L1001.83,126l-6.4,6.39Z"/><path class="cls-7" d="M1019.59,160.34l5.4-18.13-18.83,2.26-7.45-8.82,28.34-2.87,7.36-26.45,7.67,9.07-5.17,17.08,17.74-2.21,7.46,8.82-27.21,2.78-7.65,27.55Z"/><path class="cls-7" d="M1052.67,181.49l-4.41-6.33-11.37,7.92-5.81-8.34,37.91-26.4,10.79,15.49c6.3,9,4.74,18.24-3,23.64l-.11.07C1067.9,193.65,1058.59,190,1052.67,181.49Zm18.06-2.36c3.74-2.6,3.93-6.6,1-10.77l-4.49-6.44L1055.68,170l4.6,6.61c2.9,4.17,7.09,4.87,10.34,2.61Z"/><path class="cls-7" d="M1055.19,210.28l40.42-22.36,4.92,8.89-32.34,17.89,11.15,20.16-8.08,4.47Z"/><path class="cls-7" d="M1080.47,263.64c-5.2-13.27,1-26.67,13.19-31.46l.13-.05c12.22-4.79,26,.93,31.22,14.21s-1,26.67-13.19,31.46l-.12.05C1099.47,282.64,1085.67,276.92,1080.47,263.64Zm27.35,4.32c7.37-2.89,11.4-10.71,8.42-18.33s-11.08-10.54-18.46-7.65l-.12,0c-7.37,2.89-11.4,10.71-8.41,18.33s11.08,10.54,18.45,7.65Z"/><path class="cls-7" d="M1092.23,294.73l44.18-13.5,3,9.72-44.18,13.5Z"/><path class="cls-7" d="M1139.27,326.13l-35.66,9.18-2.53-9.84,35.66-9.18-3.5-13.61,9.07-2.34,9.54,37.07-9.07,2.34Z"/><path class="cls-7" d="M647.72,512.58l-5-5.88-10.54,9-6.6-7.74,35.15-30L673,492.35c7.15,8.38,6.51,17.7-.67,23.82l-.1.09C664.06,523.19,654.45,520.46,647.72,512.58Zm17.74-4.12c3.47-2.95,3.27-6.95,0-10.81l-5.1-6-10.75,9.17,5.23,6.12c3.3,3.87,7.53,4.16,10.55,1.59Z"/><path class="cls-7" d="M680.45,562.35,682,544.63l-6.22-5-9.27,11.51-7.92-6.38,29-36L704.05,522c8.48,6.84,10,15.41,4,22.81l-.08.1c-4.68,5.81-10.76,6.93-16.7,4.94l-1.57,19.93Zm19.25-23.56c2.74-3.39,1.78-7-2.07-10.15l-7.86-6.34-8.33,10.33,8,6.46c3.85,3.11,7.72,2.83,10.16-.2Z"/><path class="cls-7" d="M722.31,588.07c-12.94-6-17.76-19.92-12.25-31.84l.06-.12c5.51-11.93,19.43-17.34,32.37-11.35s17.77,19.92,12.26,31.84l-.06.12C749.18,588.64,735.25,594.06,722.31,588.07ZM745,572.26c3.33-7.19.83-15.62-6.6-19s-15.3,0-18.62,7.24l-.06.12c-3.32,7.19-.82,15.62,6.61,19s15.29,0,18.62-7.24Z"/></g><g id="SI"><path class="cls-8" d="M340.26,0c-6.7,17.32-13.1,33.88-19.51,50.44-2.34,6-4.57,12.14-7.09,18.12a9.26,9.26,0,0,0,.11,7.59q12.08,30.64,23.88,61.37c.57,1.5,1.71,2.91,1.11,5.08a200.66,200.66,0,0,0-39.1,2.83Q236,156.91,192.37,204.59c-27.67,30.28-43.85,66-48.39,106.83a5,5,0,0,1-3.58,4.7q-32.84,12.61-65.57,25.44a6.74,6.74,0,0,1-5.25-.06C47.75,333,25.92,324.42,4,316.08,1,315,.56,313.56.75,310.6,9.49,170.87,106.81,51.73,239.83,13.25,272.39,3.83,305.58-.29,340.26,0Z"/><path class="cls-7" d="M140.06,213.74l-10.41,17.64L84.44,204.7l10.4-17.63c8.39-14.22,23.93-18.28,36.66-10.77l.13.08C144.35,183.88,148.44,199.53,140.06,213.74Zm-14.57-27c-8-4.73-16.87-2.56-21.67,5.58l-4.53,7.69,27.25,16.08,4.54-7.68c4.8-8.14,2.55-16.87-5.46-21.6Z"/><path class="cls-7" d="M159.09,184.11l-37.65-36.59L149,119.12l7.37,7.16-19.6,20.17,7.64,7.42,17.25-17.75,7.37,7.16L151.81,161l7.91,7.69,19.86-20.44,7.37,7.16Z"/><path class="cls-7" d="M215.92,138.45,207,143.36l-44-36.13,11.18-6.14,29.82,25.81-5.76-39,10.91-6Z"/><path class="cls-7" d="M454.77,129.14l25.35-46,10.11,5.58-25.34,46Z"/><path class="cls-7" d="M505.7,163.75l3.49-12.22-17.47-13.71-11,6.3-9.27-7.26,50.34-27.72,8.38,6.58L515.2,171.21Zm11.56-40.5-16,9.09,11,8.61Z"/><path class="cls-7" d="M659.6,223.65l-12.5,16.21L605.52,207.8,618,191.59c10.08-13.07,26-15.18,37.71-6.16l.12.09C667.55,194.54,669.67,210.58,659.6,223.65Zm-11.13-28.57c-7.36-5.67-16.42-4.61-22.19,2.87L620.83,205l25.06,19.33,5.45-7.07c5.77-7.48,4.62-16.43-2.75-22.1Z"/><path class="cls-7" d="M706,167.67l-12-4.13-14.61,16.72,5.71,11.36-7.75,8.86-25-51.73,7-8,54.62,17.85ZM666.15,154l8.23,16.46,9.18-10.51Z"/><path class="cls-7" d="M701.76,112l29.53,29.66-8.19,8.15-29.52-29.66-11.32,11.27-7.52-7.55,30.83-30.69,7.51,7.55Z"/><path class="cls-7" d="M773.36,104.89l-11.17-6.08-17.19,14L748.73,125l-9.12,7.44-16-55.18,8.25-6.73,50.87,26.72Zm-37-20.15,5.36,17.6,10.81-8.82Z"/></g><g id="DEV"><path class="cls-9" d="M142.78,329.61c-.27,19.25,1.62,37.65,7.29,55.34C173.79,459,223.69,504.28,300,519.47c9.64,1.92,14.57,5.08,17.72,14.54,6.3,18.9,14.11,37.3,21.43,55.85a10.23,10.23,0,0,1,0,8.1q-12.28,31.34-24.24,62.8c-1.24,3.29-2.93,4-6.25,3.76C160.92,653.32,39.64,548.06,7.5,402.9A329.34,329.34,0,0,1,0,333.52c0-3.73.6-4.54,4.36-3,21.32,8.45,42.75,16.62,64.1,25a9.54,9.54,0,0,0,7.59.06C96,347.63,116,339.89,136,332.11,137.94,331.33,140,330.64,142.78,329.61Z"/><path class="cls-7" d="M114,530.18a40.63,40.63,0,0,1-9.8-28.79l14-.72c-.1,8,1.46,14.92,6.42,20.67,3.91,4.52,8.2,5.58,11.36,2.86l.15-.14c3-2.59,3.06-5.65-1.89-16-6-12.52-8.62-21.66,2.09-30.91l.15-.13c9.78-8.46,22.59-6.73,31.46,3.54a36.83,36.83,0,0,1,9.28,24.6l-13.9,2c-.54-7.32-2.32-13.43-6-17.67s-7.67-4.66-10.29-2.4l-.15.13c-3.54,3.07-2.84,6.22,2.28,17,6,12.66,7,21.8-2.4,29.92l-.15.13C135.94,543.44,123.35,541,114,530.18Z"/><path class="cls-7" d="M145.38,561.08l46.89-53.69,11,9.61L156.4,570.7Z"/></g></g></svg>