<svg xmlns="http://www.w3.org/2000/svg" viewBox="0 0 918.01 931.9"><defs><style>.cls-1{fill:#3a98d7;}.cls-2{fill:#2e80b6;}.cls-3{fill:#39c974;}.cls-4{fill:#29ba9b;}.cls-5{fill:#995cb3;}.cls-6{fill:#30ac63;}.cls-7{fill:#8c48aa;}.cls-8{fill:#239e84;}.cls-9{font-size:40px;}.cls-10,.cls-9{fill:#fff;font-family:Inconsolata-BoldForPowerline, Inconsolata for Powerline;font-weight:700;}.cls-10{font-size:36px;}.cls-11{fill:#a5a5a5;}</style></defs><title>Fichier 1</title><g id="Calque_2" data-name="Calque 2"><g id="Calque_3" data-name="Calque 3"><path class="cls-1" d="M790,451c17,0,34,.16,51-.11,4.27-.06,4.79,1.55,4.7,5.18A406.79,406.79,0,0,1,733.5,727c-2.62,2.77-4,3.27-7,.33q-36.13-35.58-72.66-70.76c-3.07-3-2.8-4.37,0-7.33q63.1-67.29,77.46-158.48A225.31,225.31,0,0,0,734.43,454c0-3.68,1.3-4.32,4.62-4.29"/><path class="cls-2" d="M738.08,441.24c-3.23,0-4.53-.44-4.65-4.2-2.35-75.17-29.44-140.21-80.5-195.3-2.67-2.89-3.23-4.28-.07-7.32q36.38-35,72.34-70.41c2.77-2.72,4.29-3.41,7.37-.13q83.11,88.4,105.66,207.54A383.33,383.33,0,0,1,844.71,435c.07,3.63-.43,5.21-4.69,5.15-17-.27-34-.11-51-.11"/><path class="cls-3" d="M428.53,801.52c0,16.82-.14,33.65.09,50.47.06,4.11-.95,5.32-5.2,5.22a406.86,406.86,0,0,1-271.7-113c-2.22-2.12-2.68-3.2-.26-5.65Q187.9,701.56,224,664.22c2.11-2.17,3.2-1.69,5.13.13q64.38,61.11,151.74,77.13a241.47,241.47,0,0,0,44.15,4.41c3.68,0,4.76.85,4.71,4.67"/><path class="cls-4" d="M81.55,441q-25.74,0-51.46,0c-2.54,0-4.29.14-4.19-3.54,1.27-48.71,10.46-95.8,28.39-141.15A408.07,408.07,0,0,1,138.16,165c2.5-2.65,4-3.41,7-.4q36.12,35.58,72.65,70.77c3.07,3,2.71,4.47,0,7.39q-61.95,66.14-76.93,155.59a218.75,218.75,0,0,0-3.45,39.24c.05,3.84-1.25,4.7-4.9,4.66"/><path class="cls-5" d="M441.37,39.56c-.05-4.12,1.36-4.89,5.13-4.81A406.45,406.45,0,0,1,716.75,146.31c3.38,3.19,3.85,4.9.31,8.47q-35.35,35.66-70.25,71.79c-2.52,2.6-3.92,3.17-6.94.32Q576,166.43,489.35,150.51c-14.9-2.76-29.93-4.62-45.13-4.47-3.13,0-4.16-.57-4.11-4,.24-17.16.11-34.32.11-51.48"/><path class="cls-6" d="M440.86,748.83c0-3.13.83-3.83,3.87-3.92q113.58-3.4,196.42-81.26c2.69-2.53,3.94-2.07,6.22.28q35.48,36.6,71.19,73c2.58,2.63,3.08,4.07.06,6.92C659,800,589,835.66,508.25,850.12a396.81,396.81,0,0,1-61.05,6.13c-3.56.08-4.92-.52-4.87-4.49.23-17.15.1-34.3.1-51.46"/><path class="cls-7" d="M430.63,91.24c0,17.33-.09,34.66.08,52,0,3.91-2.13,3.72-4.77,3.78-43.3.88-84.26,11.33-123,30.4a282.84,282.84,0,0,0-71.39,49.87c-3.24,3.1-4.94,3.13-8.1-.16q-34.66-36-69.79-71.58c-3.38-3.43-3-5.15.27-8.18C211.87,93,279.68,57.93,357.76,42.83a399.08,399.08,0,0,1,65.95-7.14c4.36-.11,6.05.67,6,5.57"/><path class="cls-8" d="M131.38,450.63c4-.06,5,1.17,5.08,5,1.58,58.27,19.11,111.38,52,159.46a268.94,268.94,0,0,0,29,35.61c2.36,2.43,2.54,3.82,0,6.3q-36.82,35.6-73.36,71.5c-2.93,2.88-4.27,2.06-6.62-.42A406.76,406.76,0,0,1,25.09,456.2c-.08-3.67,1-4.36,4.36-4.33,17,.16,34,.08,51,.08"/></g><g id="Calque_2-2" data-name="Calque 2"><text class="cls-9" transform="translate(85.75 421.02) rotate(-83.23)">D</text><text class="cls-9" transform="translate(88.06 401.48) rotate(-80.19)">A</text><text class="cls-9" transform="matrix(0.22, -0.97, 0.97, 0.22, 91.4, 382.11)">T</text><text class="cls-9" transform="matrix(0.27, -0.96, 0.96, 0.27, 95.77, 362.94)">A</text><text class="cls-9" transform="matrix(0.32, -0.95, 0.95, 0.32, 101.14, 344.04)"> </text><text class="cls-9" transform="matrix(0.37, -0.93, 0.93, 0.37, 107.53, 325.42)">S</text><text class="cls-9" transform="translate(114.89 307.18) rotate(-64.95)">C</text><text class="cls-9" transform="translate(123.2 289.36) rotate(-61.92)">I</text><text class="cls-9" transform="translate(132.44 272.03) rotate(-58.89)">E</text><text class="cls-9" transform="matrix(0.56, -0.83, 0.83, 0.56, 142.6, 255.18)">N</text><text class="cls-9" transform="matrix(0.6, -0.8, 0.8, 0.6, 153.63, 238.89)">C</text><text class="cls-9" transform="translate(165.51 223.2) rotate(-49.84)">E</text><text class="cls-9" transform="matrix(0.84, -0.55, 0.55, 0.84, 227.57, 140.53)">G</text><text class="cls-9" transform="translate(244.02 129.72) rotate(-30.25)">E</text><text class="cls-9" transform="matrix(0.89, -0.46, 0.46, 0.89, 260.99, 119.81)">S</text><text class="cls-9" transform="translate(278.49 110.81) rotate(-24.15)">T</text><text class="cls-9" transform="translate(296.42 102.76) rotate(-21.12)">I</text><text class="cls-9" transform="matrix(0.95, -0.31, 0.31, 0.95, 314.75, 95.67)">O</text><text class="cls-9" transform="translate(333.46 89.55) rotate(-15.06)">N</text><text class="cls-9" transform="matrix(0.81, -0.59, 0.59, 0.81, 232.74, 193.19)">D</text><text class="cls-9" transform="matrix(0.84, -0.55, 0.55, 0.84, 248.57, 181.53)">E</text><text class="cls-9" transform="translate(265.02 170.72) rotate(-30.25)"> </text><text class="cls-9" transform="matrix(0.89, -0.46, 0.46, 0.89, 281.99, 160.81)">P</text><text class="cls-9" transform="translate(299.49 151.81) rotate(-24.15)">R</text><text class="cls-9" transform="translate(317.42 143.76) rotate(-21.12)">O</text><text class="cls-9" transform="matrix(0.95, -0.31, 0.31, 0.95, 335.75, 136.67)">J</text><text class="cls-9" transform="translate(354.46 130.55) rotate(-15.06)">E</text><text class="cls-9" transform="translate(373.46 125.43) rotate(-12.04)">T</text><text class="cls-9" transform="translate(476.61 83.95) rotate(8.69)">T</text><text class="cls-9" transform="matrix(0.98, 0.2, -0.2, 0.98, 496.05, 86.92)">R</text><text class="cls-9" transform="translate(515.31 90.91) rotate(14.79)">A</text><text class="cls-9" transform="matrix(0.95, 0.31, -0.31, 0.95, 534.32, 95.92)">I</text><text class="cls-9" transform="translate(553.04 101.93) rotate(20.89)">T</text><text class="cls-9" transform="translate(571.4 108.93) rotate(23.93)">E</text><text class="cls-9" transform="translate(589.38 116.9) rotate(26.96)">M</text><text class="cls-9" transform="matrix(0.87, 0.5, -0.5, 0.87, 606.92, 125.81)">E</text><text class="cls-9" transform="matrix(0.84, 0.54, -0.54, 0.84, 623.97, 135.64)">N</text><text class="cls-9" transform="matrix(0.81, 0.59, -0.59, 0.81, 640.46, 146.35)">T</text><text class="cls-9" transform="translate(461.28 127.39) rotate(8.69)">D</text><text class="cls-9" transform="matrix(0.98, 0.2, -0.2, 0.98, 480.72, 130.35)">E</text><text class="cls-9" transform="matrix(0.97, 0.26, -0.26, 0.97, 499.97, 134.35)"> </text><text class="cls-9" transform="matrix(0.95, 0.31, -0.31, 0.95, 518.98, 139.36)">D</text><text class="cls-9" transform="translate(537.71 145.37) rotate(20.89)">O</text><text class="cls-9" transform="matrix(0.91, 0.41, -0.41, 0.91, 556.07, 152.37)">N</text><text class="cls-9" transform="translate(574.07 160.35) rotate(26.96)">N</text><text class="cls-9" transform="translate(591.59 169.25) rotate(29.99)">E</text><text class="cls-9" transform="matrix(0.84, 0.54, -0.54, 0.84, 608.63, 179.08)">E</text><text class="cls-9" transform="translate(625.13 189.79) rotate(36.03)">S</text><text class="cls-9" transform="matrix(0.56, 0.83, -0.83, 0.56, 728.2, 223.84)">G</text><text class="cls-9" transform="translate(739.29 240.08) rotate(58.75)">E</text><text class="cls-9" transform="translate(749.5 256.89) rotate(61.81)">S</text><text class="cls-9" transform="matrix(0.42, 0.91, -0.91, 0.42, 758.79, 274.21)">T</text><text class="cls-9" transform="translate(767.16 292.01) rotate(67.9)">I</text><text class="cls-9" transform="translate(774.56 310.22) rotate(70.94)">O</text><text class="cls-9" transform="matrix(0.28, 0.96, -0.96, 0.28, 780.99, 328.82)">N</text><text class="cls-9" transform="matrix(0.22, 0.97, -0.97, 0.22, 786.42, 347.71)"> </text><text class="cls-9" transform="matrix(0.17, 0.98, -0.98, 0.17, 790.86, 366.88)">E</text><text class="cls-9" transform="translate(794.27 386.25) rotate(83.04)">T</text><text class="cls-10" transform="matrix(0.6, 0.8, -0.8, 0.6, 671.66, 222)">C</text><text class="cls-10" transform="translate(682.25 236.24) rotate(55.84)">O</text><text class="cls-10" transform="translate(692.23 250.94) rotate(58.2)">M</text><text class="cls-10" transform="translate(701.59 266.05) rotate(60.53)">M</text><text class="cls-10" transform="translate(710.33 281.5) rotate(62.85)">U</text><text class="cls-10" transform="translate(718.44 297.29) rotate(65.2)">N</text><text class="cls-10" transform="translate(725.9 313.43) rotate(67.63)">I</text><text class="cls-10" transform="translate(732.66 329.84) rotate(70.15)">C</text><text class="cls-10" transform="translate(738.69 346.51) rotate(72.82)">A</text><text class="cls-10" transform="translate(743.94 363.44) rotate(75.68)">T</text><text class="cls-10" transform="matrix(0.19, 0.98, -0.98, 0.19, 748.33, 380.55)">I</text><text class="cls-10" transform="translate(751.78 397.89) rotate(82.25)">O</text><text class="cls-10" transform="matrix(0.07, 1, -1, 0.07, 754.18, 415.32)">N</text><text class="cls-9" transform="matrix(0.13, 0.99, -0.99, 0.13, 94.83, 487.4)">T</text><text class="cls-9" transform="translate(97.46 507.21) rotate(80.74)">E</text><text class="cls-9" transform="matrix(0.2, 0.98, -0.98, 0.2, 100.77, 527.61)">C</text><text class="cls-9" transform="translate(105.01 548.3) rotate(74.4)">H</text><text class="cls-9" transform="translate(111.07 570.05) rotate(65.87)">N</text><text class="cls-9" transform="matrix(0.51, 0.86, -0.86, 0.51, 120.24, 589.7)">I</text><text class="cls-9" transform="translate(130.9 607.66) rotate(56.43)">Q</text><text class="cls-9" transform="translate(142.24 624.7) rotate(54.41)">U</text><text class="cls-9" transform="translate(153.79 640.82) rotate(52.94)">E</text><text class="cls-9" transform="translate(38.07 460.08) rotate(82.33)">D</text><text class="cls-9" transform="matrix(0.15, 0.99, -0.99, 0.15, 40.72, 479.79)">E</text><text class="cls-9" transform="matrix(0.16, 0.99, -0.99, 0.16, 43.67, 499.49)"> </text><text class="cls-9" transform="translate(46.94 519.09) rotate(79.37)">L</text><text class="cls-9" transform="translate(50.58 538.59) rotate(77.88)">’</text><text class="cls-9" transform="translate(54.89 558.74) rotate(75.65)">I</text><text class="cls-9" transform="translate(60.09 579.19) rotate(71.76)">N</text><text class="cls-9" transform="translate(67.18 600.3) rotate(63.83)">G</text><text class="cls-9" transform="matrix(0.49, 0.87, -0.87, 0.49, 76.47, 619.03)">E</text><text class="cls-9" transform="translate(86.45 636.7) rotate(58.72)">N</text><text class="cls-9" transform="translate(96.77 653.66) rotate(57.39)">I</text><text class="cls-9" transform="translate(107.49 670.42) rotate(56.36)">E</text><text class="cls-9" transform="translate(118.52 686.98) rotate(55.48)">U</text><text class="cls-9" transform="translate(129.8 703.4) rotate(54.66)">R</text><text class="cls-9" transform="translate(232.81 722.79) rotate(36.36)">S</text><text class="cls-9" transform="matrix(0.83, 0.56, -0.56, 0.83, 249.2, 734.87)">Y</text><text class="cls-9" transform="matrix(0.85, 0.52, -0.52, 0.85, 266.4, 746.66)">S</text><text class="cls-9" transform="translate(284.83 757.94) rotate(25.83)">T</text><text class="cls-9" transform="translate(305.37 767.47) rotate(16.52)">E</text><text class="cls-9" transform="matrix(0.98, 0.22, -0.22, 0.98, 325.68, 773.38)">M</text><text class="cls-9" transform="matrix(0.98, 0.17, -0.17, 0.98, 345.9, 777.81)">E</text><text class="cls-9" transform="translate(365.63 781.29) rotate(8.35)">S</text><text class="cls-9" transform="translate(173.5 743.88) rotate(36.61)">D</text><text class="cls-9" transform="translate(189.48 755.76) rotate(35.72)">’</text><text class="cls-9" transform="matrix(0.82, 0.57, -0.57, 0.82, 205.64, 767.39)">I</text><text class="cls-9" transform="translate(221.94 778.68) rotate(33.39)">N</text><text class="cls-9" transform="matrix(0.85, 0.52, -0.52, 0.85, 238.8, 789.82)">F</text><text class="cls-9" transform="translate(256.51 800.74) rotate(28.74)">O</text><text class="cls-9" transform="translate(275.49 811.22) rotate(22.88)">R</text><text class="cls-9" transform="translate(295.67 819.32) rotate(16.7)">M</text><text class="cls-9" transform="matrix(0.97, 0.25, -0.25, 0.97, 315.5, 825.22)">A</text><text class="cls-9" transform="translate(334.77 830.11) rotate(12.72)">T</text><text class="cls-9" transform="translate(354.18 834.48) rotate(11.56)">I</text><text class="cls-9" transform="translate(373.67 838.46) rotate(10.62)">O</text><text class="cls-9" transform="translate(393.22 842.13) rotate(9.79)">N</text><text class="cls-9" transform="translate(471.26 785.96) rotate(-8.32)">L</text><text class="cls-9" transform="translate(490.89 783.1) rotate(-9.79)">O</text><text class="cls-9" transform="translate(510.96 779.65) rotate(-11.78)">G</text><text class="cls-9" transform="translate(531.38 775.41) rotate(-14.79)">I</text><text class="cls-9" transform="translate(552.28 769.94) rotate(-20.32)">Q</text><text class="cls-9" transform="translate(573.39 761.72) rotate(-29.63)">U</text><text class="cls-9" transform="matrix(0.83, -0.55, 0.55, 0.83, 591.71, 751.17)">E</text><text class="cls-9" transform="translate(608.92 739.66) rotate(-36.11)"> </text><text class="cls-9" transform="matrix(0.79, -0.61, 0.61, 0.79, 625.09, 727.84)">E</text><text class="cls-9" transform="matrix(0.78, -0.63, 0.63, 0.78, 640.79, 715.65)">T</text><text class="cls-9" transform="translate(656.21 703.1) rotate(-40.26)"> </text><text class="cls-9" transform="translate(484.66 837.19) rotate(-10.43)">A</text><text class="cls-9" transform="matrix(0.98, -0.2, 0.2, 0.98, 504.24, 833.59)">L</text><text class="cls-9" transform="translate(523.68 829.66) rotate(-12.76)">G</text><text class="cls-9" transform="translate(543.39 825.21) rotate(-14.56)">O</text><text class="cls-9" transform="translate(563.53 820.01) rotate(-17.42)">R</text><text class="cls-9" transform="translate(584.24 813.58) rotate(-23.28)">I</text><text class="cls-9" transform="translate(604.06 804.64) rotate(-29.46)">T</text><text class="cls-9" transform="translate(622.05 794.42) rotate(-31.88)">H</text><text class="cls-9" transform="translate(638.93 783.91) rotate(-33.43)">M</text><text class="cls-9" transform="translate(655.5 772.95) rotate(-34.59)">I</text><text class="cls-9" transform="translate(671.9 761.64) rotate(-35.53)">E</text><text class="cls-9" transform="matrix(0.62, -0.79, 0.79, 0.62, 696.47, 664.92)">L</text><text class="cls-9" transform="translate(708.69 649.29) rotate(-53.48)">A</text><text class="cls-9" transform="matrix(0.57, -0.82, 0.82, 0.57, 720.81, 632.93)">N</text><text class="cls-9" transform="translate(732.65 615.76) rotate(-58.48)">G</text><text class="cls-9" transform="translate(743.98 597.37) rotate(-64.01)">U</text><text class="cls-9" transform="translate(753.57 576.85) rotate(-73.32)">E</text><text class="cls-9" transform="translate(759.53 556.56) rotate(-77.35)">S</text><text class="cls-9" transform="translate(764.02 536.35) rotate(-79.8)"> </text><text class="cls-9" transform="translate(767.56 516.63) rotate(-81.5)">E</text><text class="cls-9" transform="matrix(0.12, -0.99, 0.99, 0.12, 770.49, 496.98)">T</text><text class="cls-9" transform="matrix(0.6, -0.8, 0.8, 0.6, 729.61, 708.65)">C</text><text class="cls-9" transform="matrix(0.59, -0.81, 0.81, 0.59, 741.54, 692.71)">O</text><text class="cls-9" transform="matrix(0.57, -0.82, 0.82, 0.57, 753.21, 676.58)">M</text><text class="cls-9" transform="matrix(0.55, -0.83, 0.83, 0.55, 764.55, 660.31)">M</text><text class="cls-9" transform="matrix(0.53, -0.85, 0.85, 0.53, 775.73, 643.48)">U</text><text class="cls-9" transform="translate(786.7 625.81) rotate(-61.11)">N</text><text class="cls-9" transform="translate(797.25 606.84) rotate(-66.97)">I</text><text class="cls-9" transform="translate(805.39 586.7) rotate(-73.15)">C</text><text class="cls-9" transform="translate(811.34 566.88) rotate(-75.57)">A</text><text class="cls-9" transform="translate(816.29 547.62) rotate(-77.12)">T</text><text class="cls-9" transform="translate(820.71 528.23) rotate(-78.28)">I</text><text class="cls-9" transform="translate(824.75 508.75) rotate(-79.22)">O</text><text class="cls-9" transform="translate(828.47 489.21) rotate(-80.05)">N</text></g><g id="Calque_4" data-name="Calque 4"><path class="cls-11" d="M580.5,271.8c0-20.16-11.45-32.19-31.54-32.24q-113.36-.27-226.71,0c-20.19.05-31.7,12-31.7,32.1q0,171.12,0,342.24c0,20.43,11.33,31.8,31.55,31.81h225c22.7,0,33.43-10.69,33.43-33.41q0-84.69,0-169.38Q580.52,357.36,580.5,271.8ZM435.71,630.74A17.37,17.37,0,0,1,419,614c-.13-9,8.24-17.25,17.28-17a17.07,17.07,0,0,1,16.54,16.74A16.86,16.86,0,0,1,435.71,630.74ZM535.93,585q-100.29-.42-200.59,0c-7.62,0-8.78-2.4-8.74-9.25.29-48.62.16-97.25.16-145.88s.12-97.25-.15-145.88c0-6.57,1.33-8.77,8.43-8.74q100.29.45,200.59,0c7.62,0,8.83,2.46,8.81,9.32q-.32,145.89,0,291.77C544.46,583.11,542.87,585.07,535.93,585Z"/><path class="cls-11" d="M382.09,507c0-34.8,32.39-61.12,65.5-53.53,5.08,1.16,6.72,2.44,4.69,7.92-5.2,14.07-9.53,28.46-14.6,42.58-2,5.53-2.28,7.65,5,6.57,14-2.08,28.17-2.77,42.19-4.7,5.58-.78,7.2.35,6.69,6-2.69,29.61-27.79,51.33-58.22,50.14C404.81,560.88,382.07,536.5,382.09,507Z"/><path class="cls-11" d="M493.34,355.24c0,14.15-.17,28.3.07,42.45.11,6.12-1.87,9.25-8.43,8.88a139.61,139.61,0,0,0-15.58,0c-6.9.4-9-2.81-8.91-9.38q.35-42.87,0-85.76c0-6.17,1.92-9.2,8.47-8.78a111.12,111.12,0,0,0,15.59,0c7.05-.55,9,2.77,8.87,9.26C493.14,326.36,493.34,340.8,493.34,355.24Z"/><path class="cls-11" d="M380.64,373.2c0-8.66.09-17.32,0-26-.07-4.75,2.11-6.94,6.75-6.91.58,0,1.16,0,1.73,0,28.32.36,24-3.79,24.28,23.32.13,11.25-.22,22.52.11,33.77.2,6.77-2.57,9.33-9.2,9.2-28.49-.56-23.08,3.47-23.63-23C380.57,380.13,380.63,376.66,380.64,373.2Z"/><path class="cls-11" d="M446.15,501.85c6-17.94,11.56-34.54,17-51.2,1.22-3.76,3-3.15,5.64-1.69,16.44,9.11,27.35,22.56,32.66,40.64,1,3.22.67,4.83-2.9,5.29C481.43,497.12,464.38,499.42,446.15,501.85Z"/><path class="cls-11" d="M436.06,429.19c-17.36,0-34.73.06-52.09,0-4.11,0-10,1.32-10-5.11,0-6,5.61-4.54,9.41-4.55q53-.09,105.92,0c3.82,0,9.26-1.31,9.07,4.84-.17,5.83-5.47,4.82-9.39,4.83C471.37,429.22,453.71,429.19,436.06,429.19Z"/><path class="cls-11" d="M420.33,387.62c.15-20.41-2.27-18.51,16.72-18.54,15.82,0,15.88,0,15.81,16.27-.12,24.9,2.4,20.69-21.29,21.15-11,.21-11.2-.21-11.24-11.07Z"/><circle class="cls-11" cx="435.69" cy="613.86" r="11.24"/></g></g></svg>