<?xml version="1.0" encoding="utf-8"?>
<!-- Generator: Adobe Illustrator 22.1.0, SVG Export Plug-In . SVG Version: 6.00 Build 0)  -->
<svg version="1.1" id="Calque_1" xmlns="http://www.w3.org/2000/svg" xmlns:xlink="http://www.w3.org/1999/xlink" x="0px" y="0px"
	 viewBox="0 0 512 512" style="enable-background:new 0 0 512 512;" xml:space="preserve">
<style type="text/css">
	.st0{fill:#6D6D6D;}
</style>
<path class="st0" d="M374.6,190.5v-71.6C374.6,53.3,321.3,0,255.8,0c-65.5,0-118.8,53.3-118.8,118.8v71.6H90V512h331.6V190.5H374.6z
	 M166.9,118.8c0-49,39.9-88.8,88.8-88.8s88.8,39.9,88.8,88.8v71.6H166.9V118.8z M391.6,482H120V220.5h271.6V482z"/>
<path class="st0" d="M240.8,381.5v54.1h30v-54.1c25.7-6.7,44.8-30.1,44.8-57.9c0-33-26.8-59.8-59.8-59.8S196,290.6,196,323.6
	C196,351.4,215,374.9,240.8,381.5z M255.8,293.8c16.4,0,29.8,13.4,29.8,29.8c0,16.4-13.4,29.8-29.8,29.8S226,340.1,226,323.6
	C226,307.2,239.3,293.8,255.8,293.8z"/>
</svg>
