<svg height="512" viewBox="0 0 60 60" width="512" xmlns="http://www.w3.org/2000/svg"><g id="Page-1" fill="none" fill-rule="evenodd"><g id="046---Data-Cluster" fill-rule="nonzero"><path id="Shape" d="m35 33.83v23.17c-.0032948 1.1032019-.8967981 1.9967052-2 2h-30c-1.10320187-.0032948-1.9967052-.8967981-2-2v-30c.0032948-1.1032019.89679813-1.9967052 2-2h23.17c.5329123.0002413 1.0438267.2125227 1.42.59l6.82 6.82c.3774773.3761733.5897587.8870877.59 1.42z" fill="#e8edfc"/><path id="Shape" d="m8 41h20c.5522847 0 1 .4477153 1 1v17h-22v-17c0-.5522847.44771525-1 1-1z" fill="#fff"/><path id="Shape" d="m6 25h8v5c0 .5522847-.4477153 1-1 1h-6c-.55228475 0-1-.4477153-1-1z" fill="#a4c2f7"/><path id="Shape" d="m59 21.83v23.17c-.0032948 1.1032019-.8967981 1.9967052-2 2h-4v-17c0-.5522847-.4477153-1-1-1h-20c-.2655064-.0000148-.5204274.1041079-.71.29l-3.7-3.7c-.3761733-.3774773-.8870877-.5897587-1.42-.59h-1.17v-10c.0032948-1.1032019.8967981-1.9967052 2-2h23.17c.5329123.0002413 1.0438267.2125227 1.42.59l6.82 6.82c.3774773.3761733.5897587.8870877.59 1.42z" fill="#e8edfc"/><path id="Shape" d="m58.41 20.41-6.82-6.82c-.3761733-.3774773-.8870877-.5897587-1.42-.59h-3c.5329123.0002413 1.0438267.2125227 1.42.59l6.82 6.82c.3774773.3761733.5897587.8870877.59 1.42v23.17c-.0032948 1.1032019-.8967981 1.9967052-2 2h3c1.1032019-.0032948 1.9967052-.8967981 2-2v-23.17c-.0002413-.5329123-.2125227-1.0438267-.59-1.42z" fill="#cad9fc"/><path id="Shape" d="m53 30v17h-18v-13.17c-.0002413-.5329123-.2125227-1.0438267-.59-1.42l-3.12-3.12c.1895726-.1858921.4444936-.2900148.71-.29h20c.5522847 0 1 .4477153 1 1z" fill="#fff"/><path id="Shape" d="m30 13h8v5c0 .5522847-.4477153 1-1 1h-6c-.5522847 0-1-.4477153-1-1z" fill="#a4c2f7"/><path id="Shape" d="m40 9.83v3.17h-13c-1.1032019.0032948-1.9967052.8967981-2 2v2h-12c-.5522847 0-1 .4477153-1 1v7h-6v-22c.0032948-1.10320187.89679813-1.9967052 2-2h23.17c.5329123.00024132 1.0438267.21252266 1.42.59l6.82 6.82c.3774773.37617334.5897587.88708775.59 1.42z" fill="#e8edfc"/><path id="Shape" d="m39.41 8.41-6.82-6.82c-.3761733-.37747734-.8870877-.58975868-1.42-.59h-3c.5329123.00024132 1.0438267.21252266 1.42.59l6.82 6.82c.3774773.37617334.5897587.88708775.59 1.42v3.17h3v-3.17c-.0002413-.53291225-.2125227-1.04382666-.59-1.42z" fill="#cad9fc"/><path id="Shape" d="m25 17v8h-13v-7c0-.5522847.4477153-1 1-1z" fill="#fff"/><path id="Shape" d="m11 1h8v5c0 .55228475-.4477153 1-1 1h-6c-.5522847 0-1-.44771525-1-1z" fill="#a4c2f7"/><path id="Shape" d="m9 3c.0032948-1.10320187.89679813-1.9967052 2-2h-3c-1.10320187.0032948-1.9967052.89679813-2 2v22h3z" fill="#fff"/><path id="Shape" d="m4 57v-30c.0032948-1.1032019.89679813-1.9967052 2-2h-3c-1.10320187.0032948-1.9967052.8967981-2 2v30c.0032948 1.1032019.89679813 1.9967052 2 2h3c-1.10320187-.0032948-1.9967052-.8967981-2-2z" fill="#fff"/><path id="Rectangle-path" d="m5 3h2v8h-2z" fill="#fff"/><g fill="#428dff"><path id="Shape" d="m25 45h-14c-.5522847 0-1 .4477153-1 1s.4477153 1 1 1h14c.5522847 0 1-.4477153 1-1s-.4477153-1-1-1z"/><path id="Shape" d="m25 49h-14c-.5522847 0-1 .4477153-1 1s.4477153 1 1 1h14c.5522847 0 1-.4477153 1-1s-.4477153-1-1-1z"/><path id="Shape" d="m25 53h-14c-.5522847 0-1 .4477153-1 1s.4477153 1 1 1h14c.5522847 0 1-.4477153 1-1s-.4477153-1-1-1z"/><path id="Shape" d="m52.3 12.883c-.5630736-.5677424-1.3303906-.8858367-2.13-.883h-9.17v-2.17c.0028367-.79960943-.3152576-1.56692644-.883-2.13l-6.817-6.817c-.5630736-.56774242-1.3303906-.88583675-2.13-.883h-23.17c-1.65685425 0-3 1.34314575-3 3 0 .35726559.19059892.68739261.5.8660254.30940108.1786328.69059892.1786328 1 0 .30940108-.17863279.5-.50875981.5-.8660254 0-.55228475.44771525-1 1-1h2v4c0 1.1045695.8954305 2 2 2h6c1.1045695 0 2-.8954305 2-2v-4h2v2c0 .55228475.4477153 1 1 1s1-.44771525 1-1v-2h2v2c0 .55228475.4477153 1 1 1s1-.44771525 1-1v-2h3.17c.2682872.00030678.525199.10840432.713.3l6.82 6.82c.1915957.18780099.2996932.4447128.3.713v2.167h-12.003c-1.6568542 0-3 1.3431458-3 3v1h-11c-1.1045695 0-2 .8954305-2 2v6h-4v-13c0-.5522847-.44771525-1-1-1s-1 .4477153-1 1v13h-2c-1.65685425 0-3 1.3431458-3 3v30c0 1.6568542 1.34314575 3 3 3h30c1.6568542 0 3-1.3431458 3-3v-9h21c1.6568542 0 3-1.3431458 3-3v-23.17c.0020329-.7985702-.3159996-1.5646575-.883-2.127zm-34.3-6.883h-6v-4h6zm19 8v4h-6v-4zm-24 4h11v2h-8c-.5522847 0-1 .4477153-1 1s.4477153 1 1 1h8v2h-11zm0 12h-6v-4h6zm-5 28v-16h20v16zm26-1c0 .5522847-.4477153 1-1 1h-3v-16c0-1.1045695-.8954305-2-2-2h-20c-1.1045695 0-2 .8954305-2 2v16h-3c-.55228475 0-1-.4477153-1-1v-30c0-.5522847.44771525-1 1-1h2v4c0 1.1045695.8954305 2 2 2h6c1.1045695 0 2-.8954305 2-2v-4h2v2c0 .5522847.4477153 1 1 1s1-.4477153 1-1v-2h2v2c0 .5522847.4477153 1 1 1s1-.4477153 1-1v-2h3.172c.2651948.0000566.5195073.1054506.707.293l6.828 6.828c.1875494.1874927.2929434.4418052.293.707zm2-11v-3h13c.5522847 0 1-.4477153 1-1s-.4477153-1-1-1h-13v-2h13c.5522847 0 1-.4477153 1-1s-.4477153-1-1-1h-13v-2h13c.5522847 0 1-.4477153 1-1s-.4477153-1-1-1h-13.13c-.1358022-.4876168-.3935725-.9326062-.749-1.293l-1.707-1.707h18.586v16zm22-1c0 .5522847-.4477153 1-1 1h-3v-16c0-1.1045695-.8954305-2-2-2h-20c-.1731694.0021578-.3453064.027037-.512.074l-3.195-3.195c-.5610959-.5647128-1.3249322-.8812673-2.121-.879h-.172v-9c0-.5522847.4477153-1 1-1h2v4c0 1.1045695.8954305 2 2 2h6c1.1045695 0 2-.8954305 2-2v-4h2v2c0 .5522847.4477153 1 1 1s1-.4477153 1-1v-2h2v2c0 .5522847.4477153 1 1 1s1-.4477153 1-1v-2h3.17c.2682872.0003068.525199.1084043.713.3l6.82 6.82c.1915957.187801.2996932.4447128.3.713z"/><path id="Shape" d="m6.02 8c-.55228475.00276142-1.00223858-.44271525-1.005-.995s.44271525-1.00223858.995-1.005h.01c.55228475 0 1 .44771525 1 1s-.44771525 1-1 1z"/></g></g></g></svg>